PathFileType	4	(X/Y/Z)	 New Session 104.trc
DataRate	CameraRate	NumFrames	NumMarkers	Units	OrigDataRate	OrigDataStartFrame	OrigNumFrames
100	100	19	14	m	100	83	660
Frame#	Time	C7			T8			IJ			PX			AA			AC			AI			TS			SC			GH			LE			ME			US			RS			
		X1	Y1	Z1	X2	Y2	Z2	X3	Y3	Z3	X4	Y4	Z4	X5	Y5	Z5	X6	Y6	Z6	X7	Y7	Z7	X8	Y8	Z8	X9	Y9	Z9	X10	Y10	Z10	X11	Y11	Z11	X12	Y12	Z12	X13	Y13	Z13	X14	Y14	Z14	
83	0.8300	0.027815	0.099487	0.168480	0.031020	-0.115757	0.232342	-0.000987	0.000172	0.003210	-0.003140	-0.142942	-0.066813	0.227594	-0.003441	0.125517	0.173044	0.042039	0.060881	0.113832	0.020601	0.196053	0.113660	-0.096984	0.226797	0.024080	0.008245	0.007018	0.236743	0.009239	0.084711	0.273042	-0.283635	0.021635	0.187398	-0.304192	-0.011221	0.306026	-0.547397	-0.070039	0.368786	-0.512200	-0.099372	
84	0.8400	0.027826	0.099476	0.168591	0.031039	-0.115782	0.232415	-0.001016	0.000200	0.003305	-0.003160	-0.142922	-0.066752	0.227590	-0.003453	0.125594	0.173054	0.042050	0.060965	0.113853	0.020582	0.196128	0.113676	-0.097016	0.226841	0.024092	0.008258	0.007111	0.236759	0.009237	0.084802	0.273075	-0.283631	0.021708	0.187438	-0.304173	-0.011079	0.306071	-0.547369	-0.069954	0.368806	-0.512170	-0.099358	
85	0.8500	0.027832	0.099477	0.168700	0.031060	-0.115811	0.232488	-0.001038	0.000230	0.003386	-0.003175	-0.142892	-0.066707	0.227584	-0.003462	0.125666	0.173056	0.042060	0.061039	0.113866	0.020568	0.196207	0.113694	-0.097044	0.226882	0.024096	0.008282	0.007194	0.236770	0.009240	0.084882	0.273113	-0.283618	0.021780	0.187469	-0.304140	-0.010902	0.306133	-0.547334	-0.069881	0.368838	-0.512128	-0.099353	
86	0.8600	0.027833	0.099478	0.168800	0.031080	-0.115833	0.232567	-0.001053	0.000263	0.003457	-0.003183	-0.142858	-0.066665	0.227584	-0.003461	0.125734	0.173052	0.042069	0.061104	0.113871	0.020562	0.196292	0.113712	-0.097061	0.226929	0.024092	0.008308	0.007278	0.236766	0.009253	0.084951	0.273140	-0.283603	0.021843	0.187479	-0.304105	-0.010738	0.306205	-0.547290	-0.069834	0.368883	-0.512074	-0.099357	
87	0.8700	0.027834	0.099472	0.168892	0.031098	-0.115845	0.232656	-0.001066	0.000297	0.003522	-0.003188	-0.142823	-0.066616	0.227590	-0.003450	0.125803	0.173049	0.042078	0.061169	0.113875	0.020563	0.196382	0.113727	-0.097068	0.226993	0.024090	0.008326	0.007366	0.236745	0.009275	0.085016	0.273139	-0.283599	0.021883	0.187480	-0.304084	-0.010619	0.306281	-0.547238	-0.069832	0.368940	-0.512006	-0.099369	
88	0.8800	0.027839	0.099462	0.168984	0.031115	-0.115844	0.232761	-0.001077	0.000329	0.003587	-0.003187	-0.142789	-0.066562	0.227598	-0.003435	0.125877	0.173048	0.042088	0.061241	0.113883	0.020566	0.196478	0.113741	-0.097067	0.227075	0.024097	0.008336	0.007455	0.236717	0.009302	0.085085	0.273110	-0.283611	0.021895	0.187484	-0.304077	-0.010552	0.306359	-0.547180	-0.069892	0.369007	-0.511925	-0.099392	
89	0.8900	0.027847	0.099454	0.169083	0.031132	-0.115837	0.232880	-0.001089	0.000357	0.003654	-0.003179	-0.142759	-0.066508	0.227600	-0.003419	0.125958	0.173051	0.042102	0.061321	0.113894	0.020570	0.196575	0.113757	-0.097065	0.227162	0.024106	0.008342	0.007543	0.236701	0.009327	0.085160	0.273076	-0.283623	0.021895	0.187491	-0.304076	-0.010530	0.306437	-0.547119	-0.070019	0.369082	-0.511831	-0.099428	
90	0.9000	0.027847	0.099454	0.169183	0.031147	-0.115829	0.233002	-0.001097	0.000380	0.003723	-0.003170	-0.142737	-0.066456	0.227595	-0.003405	0.126042	0.173056	0.042122	0.061407	0.113903	0.020573	0.196669	0.113776	-0.097068	0.227244	0.024104	0.008349	0.007628	0.236702	0.009347	0.085243	0.273065	-0.283618	0.021910	0.187498	-0.304070	-0.010536	0.306517	-0.547056	-0.070203	0.369161	-0.511726	-0.099479	
91	0.9100	0.027837	0.099463	0.169280	0.031157	-0.115825	0.233107	-0.001101	0.000399	0.003794	-0.003169	-0.142720	-0.066402	0.227584	-0.003394	0.126127	0.173061	0.042147	0.061494	0.113906	0.020577	0.196758	0.113791	-0.097076	0.227315	0.024098	0.008361	0.007703	0.236711	0.009366	0.085332	0.273085	-0.283588	0.021950	0.187504	-0.304053	-0.010546	0.306600	-0.546992	-0.070421	0.369243	-0.511611	-0.099546	
92	0.9200	0.027821	0.099476	0.169377	0.031163	-0.115825	0.233187	-0.001104	0.000418	0.003867	-0.003175	-0.142701	-0.066339	0.227575	-0.003381	0.126210	0.173067	0.042177	0.061580	0.113904	0.020579	0.196841	0.113798	-0.097081	0.227383	0.024100	0.008379	0.007767	0.236718	0.009385	0.085419	0.273129	-0.283541	0.022002	0.187512	-0.304029	-0.010538	0.306688	-0.546923	-0.070641	0.369326	-0.511487	-0.099629	
93	0.9300	0.027806	0.099486	0.169476	0.031167	-0.115832	0.233241	-0.001110	0.000445	0.003939	-0.003175	-0.142674	-0.066270	0.227570	-0.003365	0.126293	0.173072	0.042208	0.061662	0.113901	0.020576	0.196918	0.113796	-0.097081	0.227456	0.024110	0.008403	0.007828	0.236715	0.009407	0.085500	0.273177	-0.283493	0.022048	0.187531	-0.304012	-0.010503	0.306780	-0.546851	-0.070836	0.369410	-0.511357	-0.099724	
94	0.9400	0.027799	0.099489	0.169577	0.031174	-0.115841	0.233285	-0.001118	0.000483	0.004005	-0.003169	-0.142643	-0.066207	0.227569	-0.003347	0.126380	0.173079	0.042237	0.061742	0.113897	0.020568	0.196993	0.113795	-0.097077	0.227538	0.024121	0.008428	0.007894	0.236706	0.009430	0.085578	0.273214	-0.283457	0.022081	0.187568	-0.304003	-0.010446	0.306872	-0.546775	-0.070995	0.369494	-0.511226	-0.099822	
95	0.9500	0.027796	0.099484	0.169674	0.031183	-0.115851	0.233336	-0.001124	0.000519	0.004061	-0.003167	-0.142618	-0.066145	0.227570	-0.003332	0.126469	0.173085	0.042261	0.061822	0.113894	0.020559	0.197072	0.113801	-0.097074	0.227627	0.024130	0.008450	0.007967	0.236694	0.009452	0.085655	0.273244	-0.283434	0.022105	0.187624	-0.303986	-0.010375	0.306961	-0.546699	-0.071115	0.369577	-0.511096	-0.099917	
96	0.9600	0.027783	0.099476	0.169769	0.031194	-0.115855	0.233403	-0.001122	0.000536	0.004110	-0.003170	-0.142597	-0.066081	0.227571	-0.003324	0.126561	0.173088	0.042279	0.061907	0.113895	0.020552	0.197157	0.113815	-0.097076	0.227715	0.024141	0.008464	0.008042	0.236683	0.009470	0.085732	0.273290	-0.283411	0.022130	0.187685	-0.303947	-0.010309	0.307048	-0.546623	-0.071194	0.369659	-0.510971	-0.100002	
97	0.9700	0.027759	0.099474	0.169865	0.031202	-0.115851	0.233490	-0.001117	0.000530	0.004161	-0.003166	-0.142562	-0.066023	0.227567	-0.003322	0.126649	0.173087	0.042294	0.061995	0.113899	0.020548	0.197247	0.113826	-0.097081	0.227799	0.024158	0.008470	0.008115	0.236677	0.009489	0.085806	0.273370	-0.283364	0.022166	0.187728	-0.303885	-0.010280	0.307136	-0.546546	-0.071233	0.369741	-0.510851	-0.100078	
98	0.9800	0.027733	0.099482	0.169957	0.031206	-0.115839	0.233586	-0.001116	0.000515	0.004220	-0.003161	-0.142507	-0.065973	0.227553	-0.003321	0.126731	0.173081	0.042315	0.062088	0.113901	0.020548	0.197339	0.113830	-0.097083	0.227875	0.024177	0.008477	0.008184	0.236676	0.009516	0.085880	0.273486	-0.283278	0.022213	0.187743	-0.303809	-0.010282	0.307228	-0.546467	-0.071242	0.369821	-0.510736	-0.100147	
99	0.9900	0.027715	0.099494	0.170044	0.031206	-0.115821	0.233680	-0.001125	0.000506	0.004286	-0.003170	-0.142448	-0.065925	0.227533	-0.003314	0.126804	0.173068	0.042343	0.062181	0.113896	0.020552	0.197422	0.113826	-0.097082	0.227945	0.024188	0.008492	0.008247	0.236675	0.009550	0.085960	0.273609	-0.283164	0.022263	0.187750	-0.303741	-0.010280	0.307326	-0.546387	-0.071238	0.369897	-0.510627	-0.100215	
100	1.0000	0.027709	0.099508	0.170126	0.031201	-0.115802	0.233765	-0.001138	0.000510	0.004351	-0.003187	-0.142405	-0.065875	0.227516	-0.003297	0.126870	0.173051	0.042376	0.062270	0.113885	0.020559	0.197495	0.113824	-0.097076	0.228014	0.024187	0.008512	0.008304	0.236667	0.009586	0.086044	0.273692	-0.283055	0.022294	0.187771	-0.303683	-0.010286	0.307428	-0.546304	-0.071233	0.369969	-0.510524	-0.100284	
101	1.0100	0.027711	0.099520	0.170205	0.031191	-0.115783	0.233841	-0.001149	0.000526	0.004415	-0.003191	-0.142382	-0.065822	0.227507	-0.003273	0.126933	0.173032	0.042409	0.062352	0.113874	0.020568	0.197567	0.113829	-0.097067	0.228087	0.024176	0.008529	0.008362	0.236656	0.009621	0.086130	0.273720	-0.282975	0.022301	0.187806	-0.303623	-0.010346	0.307528	-0.546219	-0.071233	0.370034	-0.510426	-0.100355	
